<?xml version="1.0" standalone="no"?>
<!DOCTYPE svg PUBLIC "-//W3C//DTD SVG 20010904//EN"
 "http://www.w3.org/TR/2001/REC-SVG-20010904/DTD/svg10.dtd">
<svg version="1.0" xmlns="http://www.w3.org/2000/svg"
 width="1122.000000pt" height="852.000000pt" viewBox="0 0 1122.000000 852.000000"
 preserveAspectRatio="xMidYMid meet">

<g transform="translate(0.000000,852.000000) scale(0.100000,-0.100000)"
fill="#000000" stroke="none">
<path d="M4057 8122 c-38 -42 -8 -102 50 -102 55 0 85 67 45 103 -25 22 -75
21 -95 -1z m72 -26 c17 -20 2 -46 -25 -46 -29 0 -41 24 -24 45 16 19 34 19 49
1z"/>
<path d="M5376 8046 c-31 -30 -33 -59 -6 -86 41 -41 110 -14 110 41 0 33 -19
56 -52 64 -21 5 -33 1 -52 -19z m62 -18 c30 -30 -1 -73 -36 -51 -23 14 -25 29
-7 47 20 19 27 20 43 4z"/>
<path d="M3630 7610 l0 -160 185 0 185 0 0 160 0 160 -185 0 -185 0 0 -160z"/>
<path d="M4852 7628 c-17 -17 -17 -449 0 -466 7 -7 27 -12 44 -12 32 0 33 -1
36 -51 l3 -50 38 50 37 51 314 0 c290 0 314 1 329 18 24 27 25 416 1 450 l-15
22 -388 0 c-288 0 -390 -3 -399 -12z m683 -228 l0 -155 -280 0 -280 0 -3 145
c-1 79 0 150 2 157 4 11 61 13 283 11 l278 -3 0 -155z"/>
<path d="M7492 7468 c-13 -7 -26 -24 -29 -40 -7 -33 -19 -35 -73 -7 -61 32
-108 34 -183 9 -61 -21 -68 -26 -77 -59 -15 -54 -12 -59 13 -27 l23 28 18 -28
c10 -16 30 -39 45 -52 21 -18 23 -24 12 -31 -12 -7 -8 -15 17 -40 17 -17 38
-31 46 -31 22 0 20 7 -11 37 l-28 25 30 -18 c87 -51 103 -66 108 -97 6 -40 3
-43 -25 -25 -64 42 -159 88 -181 88 -13 0 -36 10 -51 21 -15 12 -30 19 -33 15
-3 -3 -21 3 -39 14 -22 14 -35 17 -39 10 -8 -13 -9 -12 30 -30 17 -7 37 -12
46 -11 21 2 33 -27 18 -45 -14 -17 -60 -18 -79 -1 -12 10 -12 9 -1 -5 18 -24
64 -23 86 2 22 25 35 26 35 3 1 -17 1 -17 11 0 5 9 19 17 30 17 11 0 18 -4 15
-9 -4 -5 7 -12 24 -16 33 -7 38 -25 14 -49 -22 -23 -60 -20 -78 6 -9 12 -16
18 -16 12 0 -18 35 -44 58 -44 12 0 32 10 43 21 l22 22 71 -35 c83 -40 130
-39 174 5 22 22 26 36 26 82 0 53 1 55 27 55 63 0 83 83 37 158 -11 18 -18 39
-15 46 4 9 -8 17 -32 25 -46 13 -59 13 -89 -1z"/>
<path d="M7134 7289 c-36 -13 -42 -33 -8 -25 34 9 37 11 33 24 -2 6 -13 6 -25
1z"/>
<path d="M6725 7210 c-11 -18 36 -138 86 -219 28 -45 78 -111 111 -147 l61
-65 -2 -77 c-1 -55 4 -97 19 -145 18 -58 19 -75 10 -125 -9 -52 -54 -157 -71
-167 -3 -3 -26 50 -50 116 -24 66 -51 124 -59 128 -8 3 -40 4 -70 0 l-55 -6
58 -1 c36 -1 59 -7 62 -14 2 -7 34 -91 70 -185 36 -95 65 -183 65 -195 0 -17
3 -19 12 -10 7 7 22 12 35 12 13 0 23 5 23 11 0 6 -7 9 -15 5 -18 -7 -19 4 -3
39 13 29 55 55 87 55 13 0 48 35 103 104 80 100 83 102 92 77 5 -14 15 -34 24
-44 8 -9 13 -19 11 -21 -57 -52 -182 -145 -202 -150 -14 -3 -32 -16 -38 -27
-9 -17 -13 -19 -20 -8 -7 11 -9 11 -9 -3 0 -9 -6 -19 -12 -22 -7 -3 37 -2 97
1 180 12 190 11 190 -12 0 -19 -12 -21 -170 -37 -93 -9 -246 -22 -338 -29
-157 -11 -171 -14 -213 -41 -71 -45 -78 -70 -79 -293 0 -147 4 -208 18 -270
10 -44 21 -115 24 -157 3 -42 9 -81 12 -86 3 -5 20 -7 37 -5 30 5 32 7 37 61
4 32 13 86 22 122 19 81 30 326 18 401 l-10 57 45 5 c67 7 80 -5 87 -83 3 -36
19 -168 34 -295 19 -153 25 -232 18 -236 -5 -4 -37 -12 -71 -19 -90 -17 -93
-18 -99 -49 -3 -16 -9 -40 -13 -55 -5 -23 -3 -26 20 -26 20 0 26 5 26 23 0 56
9 65 71 72 33 4 65 13 72 20 7 6 27 14 45 17 28 4 32 2 32 -19 0 -28 30 -32
37 -5 3 15 25 22 111 35 59 10 112 17 118 17 8 0 14 -41 19 -120 7 -116 8
-120 30 -120 21 0 22 5 29 117 4 65 9 119 12 122 2 2 58 -4 123 -14 99 -15
120 -21 124 -37 6 -22 37 -24 37 -2 0 12 6 15 23 11 12 -3 59 -11 104 -18 86
-13 93 -18 93 -76 0 -18 6 -23 26 -23 23 0 25 3 20 26 -4 15 -10 39 -13 55 -6
33 1 30 -142 59 -88 18 -115 28 -118 41 -7 26 -83 34 -313 34 -228 0 -307 -9
-313 -33 -15 -56 -3 130 13 208 11 54 20 135 20 188 l0 92 28 -6 c15 -4 41
-18 59 -31 94 -72 248 -67 332 10 24 23 91 151 91 175 0 8 16 36 35 62 47 64
90 158 116 255 27 98 33 325 10 415 -31 125 -98 230 -177 276 -59 35 -165 45
-212 20 -39 -20 -71 -20 -92 -1 -13 11 -24 13 -46 6 -16 -5 -48 -12 -71 -14
-42 -5 -42 -5 -71 47 -16 28 -55 82 -86 120 -31 38 -56 75 -56 83 0 28 -120
67 -135 43z"/>
<path d="M3657 7050 c-10 -15 -30 -22 -68 -27 -45 -5 -60 -13 -93 -45 l-38
-38 7 -98 c4 -53 8 -98 10 -100 8 -8 38 14 50 39 18 34 19 71 3 87 -13 13 6
42 28 42 11 0 14 -23 14 -106 0 -58 5 -114 10 -124 14 -26 46 -42 98 -50 l42
-7 0 130 c0 123 -1 129 -17 115 -53 -45 -83 -32 -83 38 l0 54 40 0 c46 0 80
27 80 63 0 47 -56 65 -83 27z"/>
<path d="M7080 7043 c0 -32 62 -44 96 -18 18 13 16 14 -23 15 -23 0 -48 3 -57
6 -9 3 -16 2 -16 -3z"/>
<path d="M4442 6984 c-48 -33 -17 -114 44 -114 23 0 64 42 64 65 0 23 -41 65
-64 65 -12 0 -32 -7 -44 -16z m67 -33 c13 -24 -9 -57 -33 -48 -23 9 -31 34
-16 52 17 20 37 19 49 -4z"/>
<path d="M6475 6484 c-71 -7 -137 -15 -145 -18 -33 -9 54 -3 210 14 91 9 143
17 115 17 -27 0 -108 -6 -180 -13z"/>
<path d="M4249 6397 c-57 -35 -138 -85 -179 -110 -81 -51 -128 -60 -157 -29
-10 10 -43 48 -73 86 l-55 68 -7 -57 -8 -57 47 -55 c57 -66 90 -93 114 -93 11
0 99 54 197 120 98 66 186 120 195 120 9 0 26 -9 36 -19 18 -18 20 -19 35 -2
17 19 21 49 8 67 -20 31 -49 24 -153 -39z"/>
<path d="M2790 5575 c0 -798 0 -805 20 -805 20 0 20 7 20 325 l0 325 210 0
210 0 0 -325 c0 -318 0 -325 20 -325 20 0 20 7 20 324 0 315 1 324 20 329 15
4 20 14 20 36 l0 31 172 0 171 0 -6 -275 -5 -275 84 0 c46 0 84 3 84 6 0 3 34
148 76 322 78 329 83 367 50 417 -34 52 -87 76 -193 85 -106 10 -634 30 -802
30 l-104 0 8 -72 c3 -40 15 -88 25 -108 17 -34 72 -90 116 -117 16 -10 2 -12
-76 -10 l-95 2 -3 443 c-2 434 -3 442 -22 442 -20 0 -20 -8 -20 -805z"/>
<path d="M6562 6298 c-18 -18 -15 -43 9 -64 15 -14 24 -16 37 -8 25 16 26 40
3 63 -24 24 -32 26 -49 9z"/>
<path d="M9545 6287 c-8 -4 -20 -5 -26 -2 -11 7 -127 -19 -169 -38 -81 -37
-139 -117 -149 -208 -4 -33 -4 -62 -1 -64 4 -2 6 -14 5 -27 -3 -39 75 -143
108 -143 4 0 11 -5 15 -12 4 -6 20 -15 35 -18 15 -4 27 -12 27 -17 0 -6 6 -6
14 1 10 8 16 9 21 1 4 -7 11 -5 21 5 19 18 41 19 47 3 4 -9 8 -10 14 -2 4 6
17 11 28 11 11 0 23 -5 27 -11 5 -7 8 -7 8 3 0 7 6 11 15 7 8 -3 15 -1 15 5 0
6 7 9 14 6 11 -4 13 -1 9 10 -5 13 -2 15 15 11 12 -4 22 -2 22 3 0 5 7 9 15 9
8 0 20 9 27 20 7 11 18 20 25 20 7 0 13 6 13 14 0 17 29 48 38 42 4 -2 8 6 9
17 1 12 5 38 8 57 12 72 3 131 -26 171 -10 15 -19 30 -19 33 0 22 -94 86 -127
86 -7 0 -13 4 -13 10 0 11 -43 10 -65 -3z m83 -76 c29 -16 72 -84 72 -115 0
-13 7 -29 15 -36 18 -15 18 -23 5 -70 -11 -41 -79 -120 -103 -120 -8 0 -19 -5
-22 -11 -4 -6 -19 -9 -35 -7 -15 1 -35 -3 -43 -10 -9 -8 -24 -12 -34 -11 -10
2 -28 -1 -41 -5 -16 -5 -29 -3 -41 8 -10 9 -27 16 -39 16 -11 0 -27 8 -34 18
-7 9 -22 22 -33 28 -27 15 -45 85 -40 151 5 60 27 90 97 139 57 40 221 55 276
25z"/>
<path d="M4197 6157 l-47 -42 0 -657 c0 -362 -2 -658 -6 -658 -3 0 -22 11 -42
25 -20 14 -41 25 -47 25 -23 0 -135 -197 -135 -237 0 -28 22 -7 39 37 14 36
78 148 97 169 6 7 78 -47 119 -89 50 -52 91 -56 48 -6 -17 20 -18 66 -15 709
l2 687 350 0 350 0 0 -685 0 -685 30 0 30 0 0 685 0 685 25 0 c23 0 25 4 25
40 l0 40 -387 0 -388 -1 -48 -42z"/>
<path d="M9647 5742 c20 -36 53 -71 53 -55 0 5 -16 27 -36 49 l-35 39 18 -33z"/>
<path d="M9586 5700 c3 -14 10 -29 15 -34 14 -16 10 6 -7 34 l-15 25 7 -25z"/>
<path d="M7250 5570 l0 -60 30 0 30 0 0 60 0 60 -30 0 -30 0 0 -60z"/>
<path d="M6500 5084 c-59 -46 -61 -60 -11 -69 45 -7 65 0 57 21 -3 8 1 14 8
14 8 0 16 7 20 15 4 10 -1 15 -16 15 -20 0 -21 1 -3 20 30 34 -5 23 -55 -16z"/>
<path d="M6872 5073 c-7 -7 -24 -13 -37 -13 -17 0 -25 -6 -25 -16 0 -9 -8 -23
-17 -30 -27 -19 -3 -38 39 -30 39 7 85 73 64 92 -9 8 -15 7 -24 -3z"/>
<path d="M3667 4843 c-4 -3 -7 -24 -7 -45 l0 -38 110 0 c88 0 110 3 110 14 0
9 -15 17 -40 21 -29 5 -40 12 -40 25 0 10 -7 21 -16 24 -21 8 -109 8 -117 -1z"/>
<path d="M4282 4664 c-46 -55 -108 -178 -126 -251 -21 -80 -26 -195 -8 -200 8
-3 12 7 12 30 0 57 27 181 53 246 27 66 84 161 97 161 5 0 27 -37 49 -81 47
-93 52 -146 26 -258 -15 -63 -14 -84 4 -65 18 18 42 168 36 217 -7 45 -64 175
-98 221 -13 17 -15 16 -45 -20z"/>
<path d="M4510 4640 c-64 -43 -85 -66 -72 -74 5 -3 33 12 62 34 30 22 57 40
62 40 28 0 -16 -188 -63 -268 -21 -36 -25 -62 -9 -62 16 0 81 149 96 219 7 36
14 85 14 109 0 54 -16 54 -90 2z"/>
<path d="M870 4640 c0 -5 -21 -11 -47 -11 -45 -2 -44 -2 17 -9 36 -4 66 -4 68
1 2 5 16 10 30 10 27 1 27 1 -3 9 -44 11 -65 11 -65 0z"/>
<path d="M698 4613 c12 -2 32 -2 45 0 12 2 2 4 -23 4 -25 0 -35 -2 -22 -4z"/>
<path d="M3426 4524 c-14 -103 -19 -254 -9 -254 16 0 23 26 23 83 0 29 3 83 7
121 l6 68 91 -5 c50 -3 103 -9 119 -13 16 -4 27 -2 27 4 0 18 -64 34 -161 39
l-96 6 -7 -49z"/>
<path d="M3767 4563 c-41 -68 -49 -297 -10 -310 7 -3 9 28 6 104 -4 85 -2 116
10 146 l16 38 48 -27 c82 -47 106 -65 174 -132 73 -70 105 -71 44 0 -50 59
-87 88 -182 142 -83 47 -98 52 -106 39z"/>
<path d="M4023 4552 c-24 -9 -43 -22 -43 -29 0 -17 19 -16 50 2 14 8 42 14 63
15 38 0 50 13 21 24 -23 9 -44 6 -91 -12z"/>
<path d="M2305 4530 c-3 -5 1 -10 9 -10 8 0 18 5 21 10 3 6 -1 10 -9 10 -8 0
-18 -4 -21 -10z"/>
<path d="M2765 4500 c3 -5 10 -10 16 -10 5 0 9 5 9 10 0 6 -7 10 -16 10 -8 0
-12 -4 -9 -10z"/>
<path d="M2728 4483 c7 -3 16 -2 19 1 4 3 -2 6 -13 5 -11 0 -14 -3 -6 -6z"/>
<path d="M2858 4448 c0 -24 -2 -55 -3 -70 l-2 -28 74 0 74 0 -3 68 -3 67 -67
3 -68 3 -2 -43z m82 22 c0 -5 -2 -10 -4 -10 -3 0 -8 5 -11 10 -3 6 -1 10 4 10
6 0 11 -4 11 -10z"/>
<path d="M4286 4373 c-12 -46 -17 -103 -8 -103 13 0 32 55 32 91 0 32 -16 39
-24 12z"/>
<path d="M3637 4350 c-30 -35 -44 -87 -28 -103 7 -7 12 -5 16 9 15 47 36 85
50 90 8 4 15 12 15 20 0 24 -27 16 -53 -16z"/>
<path d="M2713 4353 c9 -2 25 -2 35 0 9 3 1 5 -18 5 -19 0 -27 -2 -17 -5z"/>
<path d="M2207 4343 c-4 -3 -7 -35 -7 -70 l0 -63 69 0 69 0 3 38 c2 20 3 52 1
70 -3 26 -7 32 -28 32 -13 0 -24 -4 -24 -10 0 -5 -5 -10 -11 -10 -5 0 -7 5 -4
10 7 11 -57 14 -68 3z"/>
<path d="M3145 4310 c3 -5 10 -10 16 -10 5 0 9 5 9 10 0 6 -7 10 -16 10 -8 0
-12 -4 -9 -10z"/>
<path d="M1560 4274 c-64 -28 -94 -69 -109 -148 -7 -41 -6 -45 16 -55 13 -6
26 -18 29 -26 4 -9 18 -15 35 -15 25 0 30 -5 43 -47 l15 -48 0 56 c1 60 16 84
48 76 14 -4 13 -5 -4 -6 -13 0 -23 -5 -23 -11 0 -6 27 -10 60 -10 64 0 80 14
29 25 l-31 7 30 18 c16 10 32 24 34 31 3 9 20 0 51 -26 49 -42 61 -67 27 -58
-23 6 -27 -12 -5 -21 8 -3 15 -11 15 -17 0 -8 -4 -9 -13 0 -8 6 -17 8 -20 4
-4 -3 2 -12 12 -19 12 -9 17 -22 14 -41 -2 -15 5 -1 17 32 11 33 21 92 22 130
3 89 -13 114 -95 155 -68 34 -139 39 -197 14z"/>
<path d="M4472 4249 c2 -8 19 -15 36 -17 47 -5 39 -17 -28 -41 -33 -12 -58
-26 -55 -32 10 -15 28 -11 93 22 85 42 84 64 -4 76 -37 5 -46 3 -42 -8z"/>
<path d="M3980 4240 c0 -21 41 -91 50 -85 9 6 1 35 -20 76 -11 20 -30 26 -30
9z"/>
<path d="M3320 4201 c0 -34 70 -143 129 -202 71 -70 129 -99 203 -99 55 0 47
16 -13 24 -29 4 -70 16 -92 28 -53 26 -125 101 -159 165 l-28 50 144 6 c199 9
270 -6 343 -76 18 -17 36 -28 39 -24 13 13 -27 56 -83 89 l-58 33 -185 0
c-102 1 -197 5 -212 9 -19 6 -28 5 -28 -3z"/>
<path d="M9180 4203 c-84 -6 -241 -34 -298 -54 -77 -26 -174 -92 -222 -149
-22 -26 -55 -79 -73 -116 -31 -66 -32 -74 -32 -189 0 -109 2 -125 26 -176 15
-31 48 -78 75 -105 l48 -49 3 30 c5 45 13 78 19 73 2 -3 10 -37 18 -75 l13
-71 -40 -6 c-23 -4 -71 -4 -108 0 -77 7 -86 1 -69 -52 9 -26 22 -40 45 -50 30
-12 33 -17 39 -75 16 -139 75 -227 176 -264 44 -16 80 -20 177 -20 119 0 122
1 164 30 54 38 80 76 114 165 30 78 45 95 78 86 18 -4 33 -26 62 -91 48 -109
108 -168 189 -186 73 -16 255 -7 326 17 99 33 171 137 186 268 6 49 9 55 37
63 23 6 35 18 45 45 25 65 19 68 -127 68 -124 0 -131 1 -154 24 -32 32 -138
50 -259 44 -120 -6 -153 -21 -154 -68 0 -32 -3 -35 -45 -48 -54 -16 -222 -11
-261 8 -22 10 -26 18 -21 40 4 22 0 32 -20 44 -33 22 -176 32 -246 17 -30 -6
-56 -9 -59 -7 -5 6 34 130 53 166 24 47 65 53 380 57 462 7 564 -7 640 -87 28
-29 33 -31 77 -25 26 4 73 14 104 24 79 23 99 60 99 186 0 82 -3 97 -33 157
-39 79 -98 143 -183 198 -180 116 -484 175 -789 153z m705 -902 c49 -5 30 -8
-105 -14 -91 -4 -196 -14 -235 -22 -85 -18 -87 -18 -52 1 69 37 237 52 392 35z
m-771 -19 c42 -18 26 -24 -30 -12 -27 7 -114 15 -194 20 l-145 8 170 -2 c105
-2 181 -7 199 -14z m824 -54 c92 -17 109 -56 76 -168 -32 -109 -119 -154 -294
-154 -104 0 -155 12 -201 51 -58 49 -104 176 -80 221 31 58 311 87 499 50z
m-856 1 c81 -16 128 -39 134 -66 8 -31 -12 -107 -43 -164 -39 -73 -86 -94
-203 -93 -144 0 -229 34 -266 107 -20 37 -37 134 -30 163 11 41 96 73 96 37 1
-15 3 -15 18 4 16 21 25 22 129 23 62 0 136 -5 165 -11z"/>
<path d="M9714 3163 c-22 -24 -25 -35 -21 -71 7 -64 29 -83 86 -75 61 8 71 17
71 68 0 91 -82 137 -136 78z m83 -29 c7 -19 -20 -49 -36 -40 -12 8 -15 39 -4
49 12 12 33 7 40 -9z"/>
<path d="M8930 3183 c0 -11 5 -24 10 -29 15 -15 1 -46 -19 -42 -9 2 -17 13
-19 26 -5 30 -39 29 -53 -2 -9 -18 -8 -35 2 -67 l14 -42 54 0 c41 0 58 5 68
19 20 27 16 77 -9 114 -27 39 -48 49 -48 23z"/>
<path d="M4258 4159 c-136 -11 -239 -47 -320 -111 -44 -35 -82 -93 -74 -114
17 -44 150 -58 238 -24 64 24 73 18 103 -67 11 -31 26 -58 34 -61 19 -6 8 37
-28 111 l-28 58 39 28 c70 52 152 163 133 179 -6 4 -49 5 -97 1z m49 -52 c-26
-40 -107 -116 -150 -142 -52 -30 -151 -56 -186 -49 -41 9 -81 26 -81 34 0 16
89 99 127 118 57 29 146 53 227 61 39 4 73 6 75 4 2 -1 -3 -13 -12 -26z"/>
<path d="M2683 4136 c-28 -13 -32 -22 -39 -107 -6 -63 -12 -77 -56 -140 -27
-39 -48 -73 -45 -75 2 -3 79 -3 171 -2 l166 3 -50 70 c-27 38 -50 75 -50 82 0
15 16 17 25 4 3 -5 20 -12 38 -16 28 -6 330 -156 349 -174 4 -3 -15 -94 -43
-201 -56 -218 -57 -222 -58 -232 -1 -5 -8 -8 -16 -8 -10 0 -15 -10 -15 -30 0
-25 4 -30 25 -30 21 0 25 -5 25 -30 l0 -30 -100 0 -100 0 0 -30 0 -30 150 0
150 0 0 30 c0 27 -3 30 -30 30 l-30 0 4 88 c5 88 22 179 77 396 17 65 28 125
25 132 -2 6 -20 15 -38 19 -18 4 -64 24 -103 45 -38 20 -107 56 -153 80 -62
33 -81 48 -76 60 17 41 11 45 -56 45 -59 0 -65 2 -68 21 -2 12 -11 25 -20 28
-9 3 -21 8 -27 10 -5 2 -20 -2 -32 -8z m197 -68 c0 -18 -11 -31 -37 -45 -25
-14 -63 -17 -63 -5 0 4 -3 17 -6 29 -6 23 -8 22 89 31 9 1 17 -4 17 -10z m300
-240 c0 -17 -22 -8 -150 59 -106 55 -150 83 -150 95 0 14 30 3 150 -58 116
-59 150 -81 150 -96z m11 -219 c-41 -170 -59 -229 -60 -196 -1 10 15 82 35
160 50 202 56 223 61 211 2 -6 -14 -84 -36 -175z m-65 -267 c-12 -11 -18 7
-10 30 l8 23 4 -23 c2 -13 1 -26 -2 -30z"/>
<path d="M2965 4109 c-10 -15 3 -25 16 -12 7 7 7 13 1 17 -6 3 -14 1 -17 -5z"/>
<path d="M1459 4050 c0 -8 -2 -23 -4 -32 -2 -10 0 -20 5 -23 11 -7 20 48 9 60
-6 5 -9 4 -10 -5z"/>
<path d="M3285 4021 c-16 -10 -50 -39 -75 -65 -24 -25 -51 -46 -60 -46 -22 0
35 -29 113 -56 102 -37 257 -45 257 -14 0 6 -34 10 -77 10 -79 0 -123 8 -200
37 -37 13 -41 18 -32 34 5 10 34 37 64 60 70 53 77 82 10 40z"/>
<path d="M1643 4023 c-21 -8 -15 -22 7 -16 11 3 20 9 20 14 0 10 -8 10 -27 2z"/>
<path d="M1692 4019 c2 -7 10 -15 17 -17 8 -3 12 1 9 9 -2 7 -10 15 -17 17 -8
3 -12 -1 -9 -9z"/>
<path d="M3665 4021 c-12 -21 81 -57 121 -47 36 9 29 26 -11 26 -20 0 -51 6
-70 14 -19 8 -37 11 -40 7z"/>
<path d="M1673 4003 c-22 -8 -15 -43 7 -43 13 0 20 7 20 19 0 22 -9 30 -27 24z"/>
<path d="M1754 3976 c-3 -14 -2 -35 2 -48 4 -13 7 -30 5 -38 -2 -11 0 -12 9
-4 8 8 8 18 0 39 -6 16 -9 40 -5 52 3 13 3 23 0 23 -2 0 -7 -11 -11 -24z"/>
<path d="M1470 3972 c-31 -9 -40 -33 -25 -62 8 -15 11 -30 8 -34 -4 -3 -1 -6
5 -6 7 0 12 7 12 15 0 8 4 15 9 15 14 0 20 26 13 53 -4 15 -13 22 -22 19z m15
-31 c7 -12 -12 -24 -25 -16 -11 7 -4 25 10 25 5 0 11 -4 15 -9z"/>
<path d="M1776 3964 c-4 -9 -4 -19 -2 -21 8 -8 26 8 26 23 0 19 -16 18 -24 -2z"/>
<path d="M1372 3867 c-24 -27 -46 -62 -49 -78 -4 -21 -16 -35 -42 -49 -20 -10
-51 -33 -68 -52 l-33 -34 24 -25 c24 -26 26 -32 45 -104 7 -27 23 -50 47 -69
l37 -29 -5 26 c-7 34 19 37 32 5 9 -23 9 -23 9 -2 1 19 8 22 64 26 34 3 63 4
65 3 1 -1 -3 -16 -9 -32 -5 -17 -9 -51 -7 -74 l3 -44 23 67 c13 37 46 104 74
150 76 122 121 208 109 208 -5 0 -15 2 -23 5 -8 3 -22 -12 -37 -40 -26 -50
-30 -51 -72 -30 -45 24 -79 85 -72 129 5 30 3 35 -10 30 -23 -8 -55 13 -59 39
-3 21 -7 18 -46 -26z m90 -152 c17 -28 42 -51 70 -66 24 -12 44 -23 46 -24 2
-2 -15 -31 -37 -65 -23 -35 -41 -56 -41 -47 0 14 -12 17 -72 17 -71 0 -74 1
-101 34 l-27 35 18 48 c12 33 31 57 60 80 24 18 47 33 50 33 4 0 19 -20 34
-45z m-147 -175 c3 -5 1 -10 -4 -10 -6 0 -11 5 -11 10 0 6 2 10 4 10 3 0 8 -4
11 -10z"/>
<path d="M2285 3870 c3 -5 8 -10 11 -10 2 0 4 5 4 10 0 6 -5 10 -11 10 -5 0
-7 -4 -4 -10z"/>
<path d="M1649 3853 c17 -34 45 -45 75 -31 14 6 26 15 26 20 0 5 -6 6 -12 1
-19 -11 -60 -3 -82 15 -18 16 -18 16 -7 -5z"/>
<path d="M3786 3841 c-9 -16 -30 -41 -47 -55 -34 -29 -121 -76 -139 -76 -13 0
-3 63 16 102 17 34 17 38 0 38 -8 0 -21 -18 -30 -40 -18 -45 -22 -140 -6 -140
16 0 109 48 157 81 55 38 105 119 73 119 -5 0 -16 -13 -24 -29z"/>
<path d="M2370 3790 l0 -70 70 0 70 0 0 70 0 70 -70 0 -70 0 0 -70z"/>
<path d="M1766 3824 c-8 -21 -8 -24 3 -24 12 0 22 28 12 35 -5 3 -12 -2 -15
-11z"/>
<path d="M2773 3793 c9 -2 23 -2 30 0 6 3 -1 5 -18 5 -16 0 -22 -2 -12 -5z"/>
<path d="M1987 3763 c-3 -5 1 -17 9 -28 8 -10 14 -14 14 -7 0 6 19 12 43 14
23 2 42 8 42 13 0 12 -101 19 -108 8z"/>
<path d="M2721 3710 c-14 -3 -26 -11 -29 -18 -2 -8 12 -12 51 -12 61 0 71 -10
60 -62 -5 -27 -4 -30 11 -25 10 4 22 7 27 7 12 0 11 30 -2 69 -10 27 -15 31
-49 31 -21 0 -40 4 -42 8 -1 5 -14 6 -27 2z"/>
<path d="M2044 3702 c-37 -4 -46 -24 -34 -74 8 -31 8 -31 9 -5 1 22 6 27 29
28 20 1 22 2 7 6 -32 8 -36 18 -9 19 28 2 38 8 33 21 -2 4 -18 7 -35 5z"/>
<path d="M955 3664 c-14 -15 -25 -32 -25 -39 0 -25 15 -24 36 2 19 23 24 26
38 14 8 -7 19 -36 22 -64 l7 -51 13 50 c17 65 17 67 -6 92 -28 29 -56 28 -85
-4z"/>
<path d="M1977 3661 c-4 -17 -3 -21 5 -13 5 5 8 16 6 23 -3 8 -7 3 -11 -10z"/>
<path d="M1128 3577 c-14 -18 -29 -47 -33 -65 -7 -32 -6 -33 22 -25 15 4 47 8
71 8 26 0 42 4 42 11 0 9 -33 54 -74 101 -1 1 -13 -13 -28 -30z"/>
<path d="M1803 3558 c-27 -9 -33 -16 -33 -39 0 -26 2 -28 26 -19 49 19 64 31
64 50 0 22 -9 23 -57 8z"/>
<path d="M2016 3445 c4 -8 7 -15 9 -15 2 0 5 7 9 15 3 9 0 15 -9 15 -9 0 -12
-6 -9 -15z"/>
<path d="M1856 3398 c-16 -28 -24 -48 -17 -44 13 8 54 86 49 91 -2 2 -16 -19
-32 -47z"/>
<path d="M1122 3420 c-12 -12 -22 -22 -22 -24 0 -1 19 -2 42 -2 l42 1 -3 -117
-3 -118 112 0 c88 0 111 3 107 13 -3 7 -13 42 -23 78 -38 138 -87 189 -179
189 -38 0 -57 -5 -73 -20z"/>
<path d="M2508 3419 c-28 -16 -40 -46 -28 -69 13 -24 33 -26 54 -4 33 32 10
94 -26 73z"/>
<path d="M2000 3396 c-15 -39 -12 -46 6 -13 9 16 13 31 10 34 -3 3 -10 -6 -16
-21z"/>
<path d="M4573 3396 c-46 -21 -60 -51 -67 -146 -9 -108 -14 -128 -35 -135 -19
-6 -78 -119 -118 -224 -26 -70 -50 -287 -33 -305 21 -21 37 7 54 95 20 97 77
272 83 253 2 -6 -5 -55 -16 -110 -10 -54 -18 -100 -17 -101 1 -1 22 7 46 18
47 21 120 85 120 104 0 7 -17 23 -37 36 -21 13 -39 33 -41 43 -4 18 -2 17 24
-3 27 -21 29 -21 36 -4 6 16 7 16 14 -4 3 -13 12 -23 19 -23 13 0 45 79 45
112 0 11 7 18 20 18 23 0 21 -17 -11 -105 -14 -38 -16 -51 -6 -57 22 -14 27
-8 27 33 0 53 17 42 26 -17 3 -25 13 -48 20 -51 17 -6 19 -59 3 -69 -12 -7 7
-24 28 -24 18 0 45 31 39 47 -3 7 -11 55 -17 106 -6 53 -19 106 -30 125 -17
30 -18 35 -4 55 8 12 15 37 15 57 0 50 -27 186 -44 218 -31 61 -86 83 -143 58z
m52 -126 c16 0 20 -7 22 -37 3 -64 -52 -97 -91 -54 -22 24 -39 86 -31 111 6
19 7 19 43 0 20 -11 46 -20 57 -20z m-18 -152 c-1 -18 2 -43 6 -55 7 -20 5
-23 -17 -23 -25 0 -26 3 -26 55 0 48 3 55 19 55 16 0 19 -7 18 -32z"/>
<path d="M1976 3335 c-9 -26 -7 -32 5 -12 6 10 9 21 6 23 -2 3 -7 -2 -11 -11z"/>
<path d="M1994 3303 c-11 -27 -20 -51 -22 -55 -2 -5 3 -8 12 -8 9 0 16 -4 16
-10 0 -18 2 -25 11 -42 8 -14 3 -17 -28 -21 -21 -2 8 -4 65 -5 56 -1 102 -1
102 1 0 1 -9 25 -20 54 -18 47 -18 55 -5 86 8 19 11 37 8 41 -4 3 -32 6 -63 6
l-57 0 -19 -47z"/>
<path d="M6613 3293 c-26 -10 -12 -19 23 -15 52 6 84 -14 78 -47 -7 -34 13
-52 44 -40 28 11 27 47 -3 63 -11 6 -31 19 -44 29 -22 16 -71 21 -98 10z"/>
<path d="M1945 3269 c-6 -19 0 -38 9 -28 10 12 16 49 7 49 -5 0 -13 -9 -16
-21z"/>
<path d="M6820 3076 c0 -2 8 -10 18 -17 15 -13 16 -12 3 4 -13 16 -21 21 -21
13z"/>
<path d="M6729 3053 c-13 -16 -12 -17 4 -4 9 7 17 15 17 17 0 8 -8 3 -21 -13z"/>
<path d="M6750 3035 c-18 -19 -26 -22 -32 -13 -5 9 -8 7 -8 -6 0 -10 -33 -50
-72 -89 -70 -67 -74 -69 -98 -55 -132 75 -129 74 -145 58 -13 -14 -5 -24 76
-93 49 -42 98 -77 109 -77 10 0 32 11 48 25 l30 25 4 -207 4 -208 -34 -105
c-40 -122 -61 -231 -62 -311 l0 -57 41 -10 40 -10 19 43 c39 90 92 240 115
323 l24 87 1 -50 c3 -181 44 -288 147 -393 l63 -64 30 22 c37 26 36 31 -33
195 -37 87 -52 137 -55 183 l-4 62 -53 0 c-47 0 -56 3 -73 28 -26 38 -59 187
-44 204 7 9 2 52 -18 153 -31 148 -36 195 -21 195 10 0 18 -32 52 -213 17 -90
25 -117 36 -113 8 3 38 13 67 21 l53 16 -37 117 c-20 64 -47 160 -60 212 -12
52 -26 102 -30 110 -12 26 -53 23 -80 -5z m-11 -330 c26 -185 26 -175 -3 -175
-27 0 -29 5 -46 125 -15 106 -13 166 7 187 9 10 17 17 19 16 1 -2 12 -71 23
-153z"/>
<path d="M880 2665 c0 -370 -1 -385 -19 -395 -12 -6 -23 -27 -28 -53 -8 -41
-10 -42 -53 -47 -25 -3 -51 -9 -57 -13 -10 -6 -13 -62 -13 -222 0 -185 2 -214
16 -219 9 -3 140 -6 293 -6 293 0 301 1 301 47 0 23 2 23 105 23 93 0 105 2
115 19 5 11 10 70 10 131 l0 112 28 -6 c15 -3 56 -10 92 -16 107 -17 110 -19
110 -42 0 -40 18 -5 25 48 l7 52 -94 6 c-51 4 -110 9 -130 12 l-38 6 0 184 c0
175 1 184 19 184 26 0 107 35 138 60 51 40 53 35 53 -154 0 -188 3 -199 54
-212 30 -7 312 -1 321 7 9 10 43 183 51 261 l7 68 -67 0 -66 0 0 243 0 243
-69 32 c-83 39 -145 42 -185 11 -14 -11 -30 -18 -35 -14 -5 3 -12 1 -16 -5 -4
-6 -11 -8 -16 -5 -5 4 -9 1 -9 -5 0 -13 -38 -28 -117 -44 l-63 -14 0 54 0 54
-40 0 -40 0 0 -52 0 -52 -30 29 c-16 16 -30 23 -30 17 0 -7 4 -12 8 -12 5 0 4
-27 -1 -60 -6 -34 -14 -57 -19 -54 -20 13 -48 91 -48 137 l0 47 -126 0 -126 0
7 -32 c13 -61 55 -152 105 -228 28 -42 50 -83 50 -91 0 -8 13 -41 28 -74 32
-67 92 -127 143 -144 l34 -11 3 -185 3 -185 -23 0 c-13 0 -47 -3 -75 -6 -52
-7 -53 -6 -53 19 0 43 -24 57 -96 57 l-64 0 0 39 c0 33 -6 43 -37 67 -31 23
-50 29 -105 32 l-68 4 0 369 0 369 -35 0 -35 0 0 -385z m120 -410 c25 -13 30
-22 30 -50 0 -34 -1 -35 -40 -35 l-40 0 0 50 c0 54 5 58 50 35z m112 -56 c4
-23 1 -29 -14 -29 -10 0 -18 6 -18 14 0 7 -3 29 -7 47 -6 34 -6 34 14 16 12
-10 23 -31 25 -48z m-245 4 c-3 -10 -5 -4 -5 12 0 17 2 24 5 18 2 -7 2 -21 0
-30z m593 -200 c1 -21 2 -62 3 -90 l2 -53 -72 0 -73 0 0 80 0 79 38 6 c20 4
42 8 47 10 6 2 20 4 33 4 19 1 22 -4 22 -36z"/>
<path d="M6280 3021 c0 -11 79 -65 86 -59 6 6 -66 68 -78 68 -5 0 -8 -4 -8 -9z"/>
<path d="M8026 2859 l-26 -20 0 -438 c0 -412 1 -439 18 -454 16 -15 48 -17
245 -17 213 0 228 1 247 20 39 39 107 36 104 -4 -1 -13 8 -16 46 -16 84 0 80
-24 80 473 l0 436 -26 20 c-26 20 -38 21 -344 21 -306 0 -318 -1 -344 -21z
m622 -81 c18 -18 17 -522 0 -516 -7 3 -50 17 -96 33 -76 25 -84 26 -95 11 -10
-14 -28 -16 -102 -14 -90 3 -90 3 -93 31 -3 26 -2 27 45 28 l48 1 -50 14 c-27
9 -72 15 -99 14 -37 0 -54 4 -68 20 -10 11 -28 20 -38 20 -19 0 -20 8 -20 173
0 121 4 177 12 185 17 17 539 17 556 0z m-418 -458 c0 -28 -2 -30 -40 -30 -27
0 -43 5 -46 15 -12 30 4 45 46 45 38 0 40 -2 40 -30z m0 -85 c0 -23 -4 -25
-45 -25 -41 0 -45 2 -45 25 0 23 4 25 45 25 41 0 45 -2 45 -25z m0 -85 c0 -28
-2 -30 -40 -30 -27 0 -43 5 -46 15 -12 30 4 45 46 45 38 0 40 -2 40 -30z m220
0 c0 -27 -3 -30 -30 -30 -27 0 -30 3 -30 30 0 27 3 30 30 30 27 0 30 -3 30
-30z"/>
<path d="M4594 2794 c-23 -34 -90 -79 -141 -94 -37 -11 -41 -16 -46 -54 -4
-22 -9 -55 -13 -73 -6 -31 -6 -32 49 -48 37 -11 84 -15 143 -13 l89 3 3 129 3
130 -28 23 c-36 28 -39 28 -59 -3z"/>
<path d="M8997 2803 c-10 -10 -33 -17 -57 -18 -22 0 -40 -3 -40 -6 0 -9 35
-39 46 -39 6 0 18 -16 27 -35 90 -189 391 -265 609 -154 48 24 145 113 153
139 3 10 23 29 43 41 l37 23 -37 6 c-21 4 -47 15 -57 24 -24 22 -35 7 -26 -34
6 -25 0 -36 -42 -81 -60 -64 -140 -105 -234 -120 -153 -24 -302 35 -381 148
-28 42 -30 49 -19 78 18 50 10 60 -22 28z"/>
<path d="M2590 2248 c0 -134 -3 -294 -7 -355 l-6 -113 48 0 48 0 -6 113 c-4
61 -7 221 -7 355 l0 242 -35 0 -35 0 0 -242z"/>
<path d="M3180 2135 l0 -355 40 0 40 0 0 355 0 355 -40 0 -40 0 0 -355z"/>
<path d="M1850 2011 c0 -20 14 -25 95 -36 80 -11 85 -13 85 -45 0 -23 7 -33
33 -47 25 -13 28 -18 14 -21 -10 -2 -24 2 -32 8 -13 11 -15 7 -15 -23 0 -34 2
-37 43 -47 23 -6 65 -18 93 -26 66 -18 99 -18 118 2 23 23 19 50 -10 73 -34
27 -43 26 -54 -1 -8 -21 -9 -21 -9 8 -1 42 -39 64 -73 42 -22 -14 -27 -14 -58
2 -29 15 -36 25 -40 56 l-5 38 -80 17 c-102 23 -105 23 -105 0z m422 -193
c-15 -15 -24 -6 -16 16 5 12 10 14 17 7 8 -8 8 -14 -1 -23z"/>
<path d="M1780 1929 c0 -6 5 -19 10 -29 9 -16 8 -18 -5 -14 -27 11 -6 -46 28
-75 85 -74 154 -80 170 -14 5 24 -7 40 -18 23 -3 -5 -20 -10 -37 -10 -35 0
-30 10 12 25 l29 10 -39 42 c-37 39 -42 41 -72 33 -24 -7 -36 -6 -48 5 -20 18
-30 19 -30 4z m140 -54 c0 -2 -9 -9 -20 -15 -16 -9 -18 -8 -14 5 5 13 34 22
34 10z"/>
<path d="M4776 1858 c-8 -31 -8 -83 1 -92 4 -3 16 17 28 46 15 37 18 55 11 60
-20 14 -34 8 -40 -14z"/>
<path d="M9396 1803 c-14 -47 -56 -237 -56 -255 0 -14 6 -19 23 -16 19 3 26
17 54 128 39 157 39 160 9 160 -15 0 -27 -7 -30 -17z"/>
<path d="M7088 1776 c-29 -30 -54 -74 -45 -82 8 -9 96 57 97 72 0 6 -6 17 -14
23 -10 9 -19 6 -38 -13z"/>
<path d="M9217 1745 c-104 -61 -105 -78 -3 -134 40 -23 76 -41 80 -41 3 0 6
13 6 29 0 23 -8 34 -42 54 l-42 24 42 24 c36 20 42 29 42 57 0 17 -1 32 -3 32
-1 0 -37 -20 -80 -45z"/>
<path d="M6473 1774 c-26 -11 -12 -22 44 -33 45 -9 58 -8 65 1 4 7 6 18 5 23
-4 11 -94 17 -114 9z"/>
<path d="M4512 1745 c-46 -20 -31 -35 34 -35 51 0 54 1 54 25 0 21 -5 25 -27
25 -16 -1 -43 -7 -61 -15z"/>
<path d="M9070 1181 c-17 -281 -17 -427 -2 -462 8 -21 7 -29 -5 -42 -14 -13
-14 -19 -3 -32 7 -9 13 -28 14 -43 1 -19 9 -31 30 -40 35 -17 152 -18 171 -2
23 19 46 72 40 91 -3 10 1 32 10 48 8 17 26 108 40 203 32 216 32 218 49 218
15 0 18 -15 42 -225 9 -82 22 -150 30 -163 9 -13 14 -31 11 -40 -2 -9 2 -29
10 -44 7 -15 11 -33 8 -40 -3 -8 1 -22 9 -33 19 -26 127 -33 179 -12 38 16 38
17 41 92 1 11 7 29 13 41 7 13 8 25 2 35 -5 7 -9 63 -9 122 0 97 -19 550 -23
553 -1 1 -31 -4 -67 -12 -139 -29 -422 -24 -533 10 l-44 13 -13 -236z m310 94
c0 -28 -24 -34 -34 -9 -10 26 -7 34 14 34 15 0 20 -7 20 -25z m90 6 c0 -11 -5
-23 -11 -27 -15 -9 -33 12 -26 30 9 23 37 20 37 -3z"/>
<path d="M993 1240 c0 -47 2 -66 4 -42 2 23 2 61 0 85 -2 23 -4 4 -4 -43z"/>
<path d="M404 1258 c-17 -26 -13 -40 8 -35 27 7 94 -41 78 -57 -13 -13 -13
-39 0 -31 6 3 10 0 10 -7 1 -9 5 -7 14 4 11 16 17 13 56 -27 24 -25 38 -45 31
-45 -17 0 -8 -25 10 -25 8 0 21 -5 29 -10 8 -5 -2 12 -23 38 -21 26 -34 47
-29 47 14 0 10 29 -5 34 -7 3 -13 1 -13 -5 0 -6 -18 4 -40 21 -29 23 -39 37
-35 50 3 11 0 20 -10 24 -10 3 -15 -1 -15 -12 -1 -12 -8 -8 -29 16 -22 26 -31
30 -37 20z"/>
<path d="M1184 1198 l-19 -23 23 19 c21 18 27 26 19 26 -2 0 -12 -10 -23 -22z"/>
<path d="M1140 1129 c-12 -23 -20 -43 -18 -45 3 -2 14 17 26 41 27 56 20 60
-8 4z"/>
<path d="M1203 1152 c-28 -18 -34 -154 -8 -215 11 -28 13 -42 5 -57 -12 -23
-4 -26 19 -7 12 9 42 11 111 7 l95 -5 -50 -27 c-71 -38 -50 -34 37 7 47 22 91
53 119 82 l44 47 -42 -33 c-40 -31 -45 -32 -79 -21 -20 7 -66 10 -104 8 l-68
-4 22 27 c12 16 25 23 31 18 5 -5 18 -9 30 -8 17 1 16 2 -5 9 -17 5 -19 8 -7
9 9 1 17 6 17 11 0 6 -11 8 -26 4 -24 -6 -26 -5 -19 17 4 17 4 20 -3 10 -8
-12 -11 -11 -15 5 -2 10 -3 5 -1 -12 3 -24 -3 -36 -27 -60 -19 -16 -30 -22
-26 -13 14 41 18 109 8 147 -12 42 -38 66 -58 54z m24 -184 c-2 -29 -3 -8 -3
47 0 55 1 79 3 53 2 -26 2 -71 0 -100z"/>
<path d="M1391 1137 c-1 -10 -5 -16 -10 -13 -5 3 -12 -1 -15 -10 -9 -22 -8
-24 11 -24 9 0 26 -9 38 -20 45 -42 78 17 34 61 -15 15 -24 18 -34 9 -10 -8
-14 -8 -18 2 -3 8 -6 6 -6 -5z"/>
<path d="M1002 1110 c0 -14 2 -19 5 -12 2 6 2 18 0 25 -3 6 -5 1 -5 -13z"/>
<path d="M1010 1064 c0 -10 5 -26 10 -34 8 -11 9 -7 4 15 -8 37 -14 45 -14 19z"/>
<path d="M1101 1024 c0 -11 3 -14 6 -6 3 7 2 16 -1 19 -3 4 -6 -2 -5 -13z"/>
<path d="M530 988 c-18 -29 -27 -76 -33 -172 l-2 -40 -28 37 c-20 27 -25 41
-19 54 5 10 6 29 1 43 -7 23 -7 23 -8 -7 -1 -31 -21 -49 -21 -19 0 7 -7 19
-15 26 -18 15 -19 7 -4 -21 10 -19 9 -20 -11 -9 -26 14 -37 6 -20 -15 11 -13
9 -15 -14 -15 -27 0 -35 -15 -13 -23 7 -3 5 -6 -5 -6 -25 -1 -23 -18 2 -26 12
-4 31 0 45 9 13 9 29 16 34 16 13 0 69 -48 81 -69 8 -16 5 -16 -43 0 -64 23
-97 23 -123 4 -17 -14 -17 -16 -3 -27 9 -7 14 -18 12 -25 -2 -6 6 -18 17 -26
16 -11 18 -16 8 -20 -7 -3 2 -6 21 -6 29 -1 32 -3 21 -16 -7 -8 -22 -15 -34
-15 -11 0 -28 -5 -36 -10 -12 -8 -10 -14 13 -38 l28 -29 -24 4 c-29 6 -131
-21 -166 -44 l-24 -15 39 -17 39 -17 -45 -12 c-46 -12 -160 -77 -160 -92 0
-14 60 -30 110 -30 45 0 47 -1 42 -25 -6 -33 8 -32 86 5 69 32 76 35 68 21 -3
-5 0 -14 8 -20 16 -13 52 -2 98 30 28 20 30 20 42 3 8 -10 20 -15 30 -11 9 4
31 -4 52 -18 23 -16 31 -25 20 -25 -10 0 -15 -4 -12 -8 3 -5 -13 -26 -35 -48
-43 -42 -78 -92 -45 -65 15 13 16 11 10 -27 -7 -42 -1 -49 25 -33 9 6 10 11 2
15 -20 13 -13 81 10 102 21 19 22 19 15 -3 -9 -27 4 -35 28 -17 17 12 17 14 3
20 -38 14 0 63 65 83 40 13 98 71 98 99 0 9 9 -2 19 -25 29 -64 71 -78 137
-47 42 20 84 88 84 135 0 49 -33 98 -71 106 l-32 6 32 26 c56 46 58 128 5 170
-32 25 -59 26 -98 6 -37 -20 -36 -20 -36 16 0 23 -10 42 -39 70 -34 35 -44 39
-88 39 -29 0 -58 -7 -72 -17 l-24 -16 7 39 c4 21 10 50 13 65 4 20 -1 27 -21
37 -24 11 -28 9 -46 -20z m187 -232 c-3 -7 0 -19 6 -25 9 -9 8 -11 -5 -6 -10
4 -18 9 -18 10 0 9 13 35 17 35 3 0 3 -6 0 -14z m53 10 c0 -2 -8 -10 -17 -17
-16 -13 -17 -12 -4 4 13 16 21 21 21 13z m-108 -34 c3 -23 0 -28 -19 -30 -13
-1 -27 6 -33 17 -15 30 -12 38 6 13 20 -29 34 -28 34 3 0 33 7 32 12 -3z m15
-4 c-3 -8 -6 -5 -6 6 -1 11 2 17 5 13 3 -3 4 -12 1 -19z m150 -19 c-24 -14
-22 -33 2 -19 11 5 28 10 38 9 10 0 3 -6 -17 -14 -43 -16 -61 -3 -35 25 10 11
21 18 24 14 3 -3 -2 -10 -12 -15z m-369 -5 l23 -7 -28 -18 c-37 -25 -46 -24
-60 6 -10 23 -9 25 15 25 15 0 37 -3 50 -6z m251 -36 c1 13 5 21 10 18 4 -3 6
-18 4 -33 -4 -22 -2 -25 6 -13 6 8 11 11 11 6 0 -5 7 -3 15 4 9 8 15 8 15 2 0
-6 7 -18 16 -26 8 -9 11 -16 6 -16 -6 0 -8 -8 -5 -18 2 -10 -5 -29 -16 -43
l-20 -24 -1 30 c-1 17 -4 24 -7 18 -7 -20 -31 -15 -43 7 -6 11 -16 20 -23 20
-8 0 -6 -4 3 -10 13 -9 13 -11 0 -20 -12 -8 -13 -10 -1 -10 17 0 6 -13 -14
-16 -16 -2 -28 23 -15 31 7 4 6 13 0 25 -7 14 -6 23 6 34 12 12 12 16 2 16 -7
1 -2 10 12 21 l25 21 6 -23 7 -24 1 23z m-88 -1 c-5 -5 -17 -5 -28 2 -16 9
-15 10 9 9 16 -2 24 -6 19 -11z m224 -7 c-3 -5 -14 -10 -23 -10 -15 0 -15 2
-2 10 20 13 33 13 25 0z m-240 -38 c-3 -3 -11 0 -18 7 -9 10 -8 11 6 5 10 -3
15 -9 12 -12z m263 11 c-10 -2 -26 -2 -35 0 -10 3 -2 5 17 5 19 0 27 -2 18 -5z
m5 -20 c-13 -2 -23 -9 -23 -14 0 -6 -4 -7 -10 -4 -21 13 -9 25 23 24 23 -1 26
-3 10 -6z m-298 -13 c-11 -5 -27 -9 -35 -9 -13 -1 -13 0 0 9 8 5 24 9 35 9
l20 0 -20 -9z m28 -27 c-7 -2 -19 -2 -25 0 -7 3 -2 5 12 5 14 0 19 -2 13 -5z
m7 -22 c-8 -5 -26 -11 -40 -15 -21 -5 -20 -3 5 9 32 15 60 20 35 6z m240 -6
c17 -9 30 -23 30 -32 0 -14 -3 -14 -22 3 -13 10 -17 12 -10 4 6 -8 12 -20 12
-28 0 -9 -7 -6 -21 9 l-20 24 11 -23 c17 -35 4 -39 -15 -5 -15 26 -15 23 1
-24 5 -15 3 -15 -10 1 -19 24 -20 40 -4 66 15 24 12 24 48 5z m-147 -10 c-3
-9 -8 -14 -10 -11 -3 3 -2 9 2 15 9 16 15 13 8 -4z m24 -7 c-3 -8 -6 -5 -6 6
-1 11 2 17 5 13 3 -3 4 -12 1 -19z m57 -41 c4 -19 3 -26 -4 -22 -5 3 -10 18
-10 32 0 32 5 28 14 -10z m-139 -7 c-10 -11 -20 -18 -23 -15 -3 3 3 14 13 25
10 11 20 18 23 15 3 -3 -3 -14 -13 -25z m-298 4 c-3 -3 -12 -4 -19 -1 -8 3 -5
6 6 6 11 1 17 -2 13 -5z m319 -35 c-9 -19 -15 -29 -16 -22 0 18 20 66 25 61 3
-3 -1 -20 -9 -39z m51 -6 c-3 -10 -5 -2 -5 17 0 19 2 27 5 18 2 -10 2 -26 0
-35z m-27 0 c-11 -17 -11 -17 -6 0 3 10 6 24 7 30 0 9 2 9 5 0 3 -7 0 -20 -6
-30z m-275 11 c-37 -13 -62 -35 -93 -80 -7 -10 -5 -4 3 14 19 39 10 40 -55 7
-27 -14 -53 -25 -57 -25 -16 0 35 28 102 55 39 16 73 31 77 35 4 3 20 6 35 7
23 1 21 -1 -12 -13z"/>
<path d="M1589 993 c-13 -16 -12 -17 4 -4 16 13 21 21 13 21 -2 0 -10 -8 -17
-17z"/>
<path d="M1092 980 c0 -14 2 -19 5 -12 2 6 2 18 0 25 -3 6 -5 1 -5 -13z"/>
<path d="M902 918 c-30 -30 -2 -72 45 -66 50 6 40 78 -11 78 -12 0 -27 -5 -34
-12z"/>
<path d="M1550 877 c-36 -17 -101 -41 -145 -53 -44 -13 -68 -23 -54 -23 38 -1
126 27 201 65 38 19 68 36 68 39 0 6 6 9 -70 -28z"/>
<path d="M1571 750 l-23 -20 26 0 c14 0 29 0 34 0 11 0 9 33 -3 36 -5 2 -21
-6 -34 -16z"/>
<path d="M1426 749 c2 -4 -2 -9 -8 -12 -10 -3 -10 -7 -1 -17 8 -9 16 -9 30 -1
10 6 13 11 6 11 -7 0 -10 6 -7 13 3 8 -2 14 -10 14 -8 0 -13 -4 -10 -8z"/>
<path d="M1100 688 c-26 -28 -25 -44 5 -73 27 -28 37 -30 66 -15 21 12 26 59
9 91 -14 26 -54 24 -80 -3z"/>
<path d="M1396 671 c2 -2 -1 -10 -7 -17 -8 -9 -5 -26 10 -60 18 -39 23 -45 36
-34 15 13 21 35 8 27 -13 -8 -53 62 -41 69 7 4 8 2 4 -4 -4 -7 -6 -12 -4 -12
51 -8 115 -10 134 -6 28 7 33 35 7 37 -53 4 -151 3 -147 0z m117 -18 c-7 -2
-19 -2 -25 0 -7 3 -2 5 12 5 14 0 19 -2 13 -5z"/>
<path d="M295 660 c11 -5 14 -9 8 -9 -7 -1 -13 -13 -13 -28 0 -25 0 -26 20 -8
30 27 26 55 -7 54 -25 0 -26 -1 -8 -9z"/>
<path d="M1433 617 c0 -8 6 -14 14 -14 9 0 10 4 2 14 -6 7 -12 13 -14 13 -1 0
-2 -6 -2 -13z"/>
<path d="M1466 552 c-3 -6 -1 -14 5 -17 15 -10 25 3 12 16 -7 7 -13 7 -17 1z"/>
<path d="M9034 478 c-121 -97 -144 -156 -74 -190 103 -52 360 18 360 97 0 47
-18 75 -48 75 -18 0 -49 15 -82 40 -29 22 -59 40 -66 40 -7 0 -47 -28 -90 -62z"/>
<path d="M9631 500 c-32 -24 -65 -40 -81 -40 -31 0 -40 -15 -40 -63 0 -38 5
-46 45 -74 72 -50 226 -69 305 -37 34 14 40 21 40 46 0 16 -5 38 -10 48 -16
29 -171 160 -189 160 -9 -1 -40 -19 -70 -40z"/>
<path d="M1280 469 c-20 -17 -33 -20 -66 -15 -33 4 -45 1 -59 -14 -14 -16 -15
-24 -6 -51 6 -18 23 -48 38 -67 26 -34 27 -35 35 -13 8 22 9 21 44 -20 20 -24
45 -50 55 -57 16 -11 19 -11 19 3 0 14 3 14 28 -3 56 -40 114 -64 122 -52 6 9
22 8 66 -5 33 -9 65 -22 72 -27 25 -21 24 2 -2 48 -20 36 -23 49 -14 55 16 10
-22 53 -64 70 -22 9 -26 14 -16 21 17 11 -24 47 -64 55 -17 3 -28 12 -28 22 0
19 -59 56 -105 65 -22 4 -37 0 -55 -15z"/>
<path d="M542 277 c1 -16 7 -23 16 -20 16 7 12 35 -5 40 -8 3 -12 -4 -11 -20z"/>
<path d="M460 164 c0 -8 5 -12 10 -9 6 3 10 10 10 16 0 5 -4 9 -10 9 -5 0 -10
-7 -10 -16z"/>
<path d="M440 90 c-24 -19 -24 -20 -4 -20 13 0 24 8 27 20 3 11 4 20 4 20 -1
0 -13 -9 -27 -20z"/>
</g>
</svg>
